<?xml version="1.0" encoding="UTF-8" standalone="no"?>
<svg xmlns="http://www.w3.org/2000/svg" version="1.1" viewBox="0 0 1320 1340">
   <polyline fill="none" points="1275,110 1275,240" stroke="rgb(0, 0, 0)" stroke-linecap="square" stroke-width="4.0"/>
   <polyline fill="none" points="45,450 45,550" stroke="rgb(0, 0, 0)" stroke-linecap="square" stroke-width="4.0"/>
   <polyline fill="none" points="45,1000 45,1040" stroke="rgb(0, 0, 0)" stroke-linecap="square" stroke-width="4.0"/>
   <polyline fill="none" points="445,1330 265,1330 265,840 65,840 51,840" stroke="rgb(0, 0, 0)" stroke-linecap="square" stroke-width="3.0"/>
   <polyline fill="none" points="445,1250 415,1250 415,850 65,850 51,850" stroke="rgb(0, 0, 0)" stroke-linecap="square" stroke-width="3.0"/>
   <polyline fill="none" points="445,1170 405,1170 405,860 65,860 51,860" stroke="rgb(0, 0, 0)" stroke-linecap="square" stroke-width="3.0"/>
   <polyline fill="none" points="445,1090 395,1090 395,870 65,870 51,870" stroke="rgb(0, 0, 0)" stroke-linecap="square" stroke-width="3.0"/>
   <polyline fill="none" points="445,1010 385,1010 385,880 65,880 51,880" stroke="rgb(0, 0, 0)" stroke-linecap="square" stroke-width="3.0"/>
   <polyline fill="none" points="445,930 375,930 375,890 65,890 51,890" stroke="rgb(0, 0, 0)" stroke-linecap="square" stroke-width="3.0"/>
   <polyline fill="none" points="445,840 275,840 275,900 65,900 51,900" stroke="rgb(0, 0, 0)" stroke-linecap="square" stroke-width="3.0"/>
   <polyline fill="none" points="445,750 285,750 285,910 65,910 51,910" stroke="rgb(0, 0, 0)" stroke-linecap="square" stroke-width="3.0"/>
   <polyline fill="none" points="445,660 295,660 295,920 65,920 51,920" stroke="rgb(0, 0, 0)" stroke-linecap="square" stroke-width="3.0"/>
   <polyline fill="none" points="445,580 305,580 305,930 65,930 51,930" stroke="rgb(0, 0, 0)" stroke-linecap="square" stroke-width="3.0"/>
   <polyline fill="none" points="445,500 315,500 315,940 65,940 51,940" stroke="rgb(0, 0, 0)" stroke-linecap="square" stroke-width="3.0"/>
   <polyline fill="none" points="445,420 325,420 325,950 65,950 51,950" stroke="rgb(0, 0, 0)" stroke-linecap="square" stroke-width="3.0"/>
   <polyline fill="none" points="445,330 335,330 335,960 65,960 51,960" stroke="rgb(0, 0, 0)" stroke-linecap="square" stroke-width="3.0"/>
   <polyline fill="none" points="445,240 345,240 345,970 65,970 51,970" stroke="rgb(0, 0, 0)" stroke-linecap="square" stroke-width="3.0"/>
   <polyline fill="none" points="445,140 355,140 355,980 65,980 51,980" stroke="rgb(0, 0, 0)" stroke-linecap="square" stroke-width="3.0"/>
   <polyline fill="none" points="445,50 365,50 365,990 65,990 51,990" stroke="rgb(0, 0, 0)" stroke-linecap="square" stroke-width="3.0"/>
   <polyline fill="none" points="51,841 51,994 46,999" stroke="rgb(0, 0, 0)" stroke-linecap="square" stroke-width="5.0"/>
   <text fill="rgb(0, 0, 0)" font-family="SansSerif" font-size="7" x="54.0" y="848.0">0</text>
   <text fill="rgb(0, 0, 0)" font-family="SansSerif" font-size="7" x="54.0" y="858.0">1</text>
   <text fill="rgb(0, 0, 0)" font-family="SansSerif" font-size="7" x="54.0" y="868.0">2</text>
   <text fill="rgb(0, 0, 0)" font-family="SansSerif" font-size="7" x="54.0" y="878.0">3</text>
   <text fill="rgb(0, 0, 0)" font-family="SansSerif" font-size="7" x="54.0" y="888.0">4</text>
   <text fill="rgb(0, 0, 0)" font-family="SansSerif" font-size="7" x="54.0" y="898.0">5</text>
   <text fill="rgb(0, 0, 0)" font-family="SansSerif" font-size="7" x="54.0" y="908.0">6</text>
   <text fill="rgb(0, 0, 0)" font-family="SansSerif" font-size="7" x="54.0" y="918.0">7</text>
   <text fill="rgb(0, 0, 0)" font-family="SansSerif" font-size="7" x="54.0" y="928.0">8</text>
   <text fill="rgb(0, 0, 0)" font-family="SansSerif" font-size="7" x="54.0" y="938.0">9</text>
   <text fill="rgb(0, 0, 0)" font-family="SansSerif" font-size="7" x="54.0" y="948.0">10</text>
   <text fill="rgb(0, 0, 0)" font-family="SansSerif" font-size="7" x="54.0" y="958.0">11</text>
   <text fill="rgb(0, 0, 0)" font-family="SansSerif" font-size="7" x="54.0" y="968.0">12</text>
   <text fill="rgb(0, 0, 0)" font-family="SansSerif" font-size="7" x="54.0" y="978.0">13</text>
   <text fill="rgb(0, 0, 0)" font-family="SansSerif" font-size="7" x="54.0" y="988.0">14</text>
   <text fill="rgb(0, 0, 0)" font-family="SansSerif" font-size="7" x="54.0" y="998.0">15</text>
   <ellipse cx="45.0" cy="1000.0" fill="rgb(0, 0, 0)" rx="2.0" ry="2.0" stroke="none" stroke-width="5.0"/>
   <ellipse cx="65.0" cy="840.0" fill="rgb(0, 0, 0)" rx="2.0" ry="2.0" stroke="none" stroke-width="5.0"/>
   <ellipse cx="65.0" cy="850.0" fill="rgb(0, 0, 0)" rx="2.0" ry="2.0" stroke="none" stroke-width="5.0"/>
   <ellipse cx="65.0" cy="860.0" fill="rgb(0, 0, 0)" rx="2.0" ry="2.0" stroke="none" stroke-width="5.0"/>
   <ellipse cx="65.0" cy="870.0" fill="rgb(0, 0, 0)" rx="2.0" ry="2.0" stroke="none" stroke-width="5.0"/>
   <ellipse cx="65.0" cy="880.0" fill="rgb(0, 0, 0)" rx="2.0" ry="2.0" stroke="none" stroke-width="5.0"/>
   <ellipse cx="65.0" cy="890.0" fill="rgb(0, 0, 0)" rx="2.0" ry="2.0" stroke="none" stroke-width="5.0"/>
   <ellipse cx="65.0" cy="900.0" fill="rgb(0, 0, 0)" rx="2.0" ry="2.0" stroke="none" stroke-width="5.0"/>
   <ellipse cx="65.0" cy="910.0" fill="rgb(0, 0, 0)" rx="2.0" ry="2.0" stroke="none" stroke-width="5.0"/>
   <ellipse cx="65.0" cy="920.0" fill="rgb(0, 0, 0)" rx="2.0" ry="2.0" stroke="none" stroke-width="5.0"/>
   <ellipse cx="65.0" cy="930.0" fill="rgb(0, 0, 0)" rx="2.0" ry="2.0" stroke="none" stroke-width="5.0"/>
   <ellipse cx="65.0" cy="940.0" fill="rgb(0, 0, 0)" rx="2.0" ry="2.0" stroke="none" stroke-width="5.0"/>
   <ellipse cx="65.0" cy="950.0" fill="rgb(0, 0, 0)" rx="2.0" ry="2.0" stroke="none" stroke-width="5.0"/>
   <ellipse cx="65.0" cy="960.0" fill="rgb(0, 0, 0)" rx="2.0" ry="2.0" stroke="none" stroke-width="5.0"/>
   <ellipse cx="65.0" cy="970.0" fill="rgb(0, 0, 0)" rx="2.0" ry="2.0" stroke="none" stroke-width="5.0"/>
   <ellipse cx="65.0" cy="980.0" fill="rgb(0, 0, 0)" rx="2.0" ry="2.0" stroke="none" stroke-width="5.0"/>
   <ellipse cx="65.0" cy="990.0" fill="rgb(0, 0, 0)" rx="2.0" ry="2.0" stroke="none" stroke-width="5.0"/>
   <polyline fill="none" points="7,1042 84,1042" stroke="rgb(0, 0, 0)" stroke-linecap="square" stroke-width="2.0"/>
   <polyline fill="none" points="85,1042 85,1079" stroke="rgb(0, 0, 0)" stroke-linecap="square" stroke-width="2.0"/>
   <polyline fill="none" points="85,1080 8,1080" stroke="rgb(0, 0, 0)" stroke-linecap="square" stroke-width="2.0"/>
   <polyline fill="none" points="7,1080 7,1043" stroke="rgb(0, 0, 0)" stroke-linecap="square" stroke-width="2.0"/>
   <text fill="rgb(0, 0, 0)" font-family="SansSerif" font-size="12" x="36.0" y="1067.0">x16</text>
   <text fill="rgb(0, 0, 0)" font-family="SansSerif" font-size="16" font-weight="bold" x="39.0" y="1099.0">B</text>
   <ellipse cx="45.0" cy="1040.0" fill="rgb(0, 0, 0)" rx="2.0" ry="2.0" stroke="none" stroke-width="2.0"/>
   <polyline fill="none" points="445,1290 165,1290 165,290 65,290 51,290" stroke="rgb(0, 0, 0)" stroke-linecap="square" stroke-width="3.0"/>
   <polyline fill="none" points="445,1210 175,1210 175,300 65,300 51,300" stroke="rgb(0, 0, 0)" stroke-linecap="square" stroke-width="3.0"/>
   <polyline fill="none" points="445,1130 185,1130 185,310 65,310 51,310" stroke="rgb(0, 0, 0)" stroke-linecap="square" stroke-width="3.0"/>
   <polyline fill="none" points="445,1050 195,1050 195,320 65,320 51,320" stroke="rgb(0, 0, 0)" stroke-linecap="square" stroke-width="3.0"/>
   <polyline fill="none" points="445,970 375,970 375,1020 205,1020 205,330 65,330 51,330" stroke="rgb(0, 0, 0)" stroke-linecap="square" stroke-width="3.0"/>
   <polyline fill="none" points="445,890 425,890 425,1000 215,1000 215,340 65,340 51,340" stroke="rgb(0, 0, 0)" stroke-linecap="square" stroke-width="3.0"/>
   <polyline fill="none" points="445,800 225,800 225,350 65,350 51,350" stroke="rgb(0, 0, 0)" stroke-linecap="square" stroke-width="3.0"/>
   <polyline fill="none" points="445,710 235,710 235,360 65,360 51,360" stroke="rgb(0, 0, 0)" stroke-linecap="square" stroke-width="3.0"/>
   <polyline fill="none" points="445,620 245,620 245,370 65,370 51,370" stroke="rgb(0, 0, 0)" stroke-linecap="square" stroke-width="3.0"/>
   <polyline fill="none" points="445,540 255,540 255,380 65,380 51,380" stroke="rgb(0, 0, 0)" stroke-linecap="square" stroke-width="3.0"/>
   <polyline fill="none" points="445,460 265,460 265,390 65,390 51,390" stroke="rgb(0, 0, 0)" stroke-linecap="square" stroke-width="3.0"/>
   <polyline fill="none" points="445,380 275,380 275,400 65,400 51,400" stroke="rgb(0, 0, 0)" stroke-linecap="square" stroke-width="3.0"/>
   <polyline fill="none" points="445,290 285,290 285,410 65,410 51,410" stroke="rgb(0, 0, 0)" stroke-linecap="square" stroke-width="3.0"/>
   <polyline fill="none" points="445,200 295,200 295,420 65,420 51,420" stroke="rgb(0, 0, 0)" stroke-linecap="square" stroke-width="3.0"/>
   <polyline fill="none" points="445,100 305,100 305,430 65,430 51,430" stroke="rgb(0, 0, 0)" stroke-linecap="square" stroke-width="3.0"/>
   <polyline fill="none" points="445,10 315,10 315,440 65,440 51,440" stroke="rgb(0, 0, 0)" stroke-linecap="square" stroke-width="3.0"/>
   <polyline fill="none" points="51,291 51,444 46,449" stroke="rgb(0, 0, 0)" stroke-linecap="square" stroke-width="5.0"/>
   <text fill="rgb(0, 0, 0)" font-family="SansSerif" font-size="7" x="54.0" y="298.0">0</text>
   <text fill="rgb(0, 0, 0)" font-family="SansSerif" font-size="7" x="54.0" y="308.0">1</text>
   <text fill="rgb(0, 0, 0)" font-family="SansSerif" font-size="7" x="54.0" y="318.0">2</text>
   <text fill="rgb(0, 0, 0)" font-family="SansSerif" font-size="7" x="54.0" y="328.0">3</text>
   <text fill="rgb(0, 0, 0)" font-family="SansSerif" font-size="7" x="54.0" y="338.0">4</text>
   <text fill="rgb(0, 0, 0)" font-family="SansSerif" font-size="7" x="54.0" y="348.0">5</text>
   <text fill="rgb(0, 0, 0)" font-family="SansSerif" font-size="7" x="54.0" y="358.0">6</text>
   <text fill="rgb(0, 0, 0)" font-family="SansSerif" font-size="7" x="54.0" y="368.0">7</text>
   <text fill="rgb(0, 0, 0)" font-family="SansSerif" font-size="7" x="54.0" y="378.0">8</text>
   <text fill="rgb(0, 0, 0)" font-family="SansSerif" font-size="7" x="54.0" y="388.0">9</text>
   <text fill="rgb(0, 0, 0)" font-family="SansSerif" font-size="7" x="54.0" y="398.0">10</text>
   <text fill="rgb(0, 0, 0)" font-family="SansSerif" font-size="7" x="54.0" y="408.0">11</text>
   <text fill="rgb(0, 0, 0)" font-family="SansSerif" font-size="7" x="54.0" y="418.0">12</text>
   <text fill="rgb(0, 0, 0)" font-family="SansSerif" font-size="7" x="54.0" y="428.0">13</text>
   <text fill="rgb(0, 0, 0)" font-family="SansSerif" font-size="7" x="54.0" y="438.0">14</text>
   <text fill="rgb(0, 0, 0)" font-family="SansSerif" font-size="7" x="54.0" y="448.0">15</text>
   <ellipse cx="45.0" cy="450.0" fill="rgb(0, 0, 0)" rx="2.0" ry="2.0" stroke="none" stroke-width="5.0"/>
   <ellipse cx="65.0" cy="290.0" fill="rgb(0, 0, 0)" rx="2.0" ry="2.0" stroke="none" stroke-width="5.0"/>
   <ellipse cx="65.0" cy="300.0" fill="rgb(0, 0, 0)" rx="2.0" ry="2.0" stroke="none" stroke-width="5.0"/>
   <ellipse cx="65.0" cy="310.0" fill="rgb(0, 0, 0)" rx="2.0" ry="2.0" stroke="none" stroke-width="5.0"/>
   <ellipse cx="65.0" cy="320.0" fill="rgb(0, 0, 0)" rx="2.0" ry="2.0" stroke="none" stroke-width="5.0"/>
   <ellipse cx="65.0" cy="330.0" fill="rgb(0, 0, 0)" rx="2.0" ry="2.0" stroke="none" stroke-width="5.0"/>
   <ellipse cx="65.0" cy="340.0" fill="rgb(0, 0, 0)" rx="2.0" ry="2.0" stroke="none" stroke-width="5.0"/>
   <ellipse cx="65.0" cy="350.0" fill="rgb(0, 0, 0)" rx="2.0" ry="2.0" stroke="none" stroke-width="5.0"/>
   <ellipse cx="65.0" cy="360.0" fill="rgb(0, 0, 0)" rx="2.0" ry="2.0" stroke="none" stroke-width="5.0"/>
   <ellipse cx="65.0" cy="370.0" fill="rgb(0, 0, 0)" rx="2.0" ry="2.0" stroke="none" stroke-width="5.0"/>
   <ellipse cx="65.0" cy="380.0" fill="rgb(0, 0, 0)" rx="2.0" ry="2.0" stroke="none" stroke-width="5.0"/>
   <ellipse cx="65.0" cy="390.0" fill="rgb(0, 0, 0)" rx="2.0" ry="2.0" stroke="none" stroke-width="5.0"/>
   <ellipse cx="65.0" cy="400.0" fill="rgb(0, 0, 0)" rx="2.0" ry="2.0" stroke="none" stroke-width="5.0"/>
   <ellipse cx="65.0" cy="410.0" fill="rgb(0, 0, 0)" rx="2.0" ry="2.0" stroke="none" stroke-width="5.0"/>
   <ellipse cx="65.0" cy="420.0" fill="rgb(0, 0, 0)" rx="2.0" ry="2.0" stroke="none" stroke-width="5.0"/>
   <ellipse cx="65.0" cy="430.0" fill="rgb(0, 0, 0)" rx="2.0" ry="2.0" stroke="none" stroke-width="5.0"/>
   <ellipse cx="65.0" cy="440.0" fill="rgb(0, 0, 0)" rx="2.0" ry="2.0" stroke="none" stroke-width="5.0"/>
   <polyline fill="none" points="7,552 84,552" stroke="rgb(0, 0, 0)" stroke-linecap="square" stroke-width="2.0"/>
   <polyline fill="none" points="85,552 85,589" stroke="rgb(0, 0, 0)" stroke-linecap="square" stroke-width="2.0"/>
   <polyline fill="none" points="85,590 8,590" stroke="rgb(0, 0, 0)" stroke-linecap="square" stroke-width="2.0"/>
   <polyline fill="none" points="7,590 7,553" stroke="rgb(0, 0, 0)" stroke-linecap="square" stroke-width="2.0"/>
   <text fill="rgb(0, 0, 0)" font-family="SansSerif" font-size="12" x="36.0" y="577.0">x16</text>
   <text fill="rgb(0, 0, 0)" font-family="SansSerif" font-size="16" font-weight="bold" x="40.0" y="609.0">A</text>
   <ellipse cx="45.0" cy="550.0" fill="rgb(0, 0, 0)" rx="2.0" ry="2.0" stroke="none" stroke-width="2.0"/>
   <rect fill="none" height="38" rx="3.0" ry="3.0" stroke="rgb(0, 0, 0)" stroke-linecap="square" stroke-width="2.0" width="78" x="1237" y="72"/>
   <text fill="rgb(0, 0, 0)" font-family="SansSerif" font-size="12" x="1266.0" y="97.0">x16</text>
   <text fill="rgb(0, 0, 0)" font-family="SansSerif" font-size="16" font-weight="bold" x="1269.0" y="64.0">O</text>
   <ellipse cx="1275.0" cy="110.0" fill="rgb(0, 0, 0)" rx="2.0" ry="2.0" stroke="none" stroke-width="2.0"/>
   <polyline fill="none" points="495,1310 865,1310 865,510 1035,510 1035,360 1095,360 1095,250 1255,250 1269,250" stroke="rgb(0, 0, 0)" stroke-linecap="square" stroke-width="3.0"/>
   <polyline fill="none" points="495,1230 815,1230 815,500 1045,500 1045,370 1105,370 1105,260 1255,260 1269,260" stroke="rgb(0, 0, 0)" stroke-linecap="square" stroke-width="3.0"/>
   <polyline fill="none" points="495,1150 795,1150 795,490 1055,490 1055,380 1115,380 1115,270 1255,270 1269,270" stroke="rgb(0, 0, 0)" stroke-linecap="square" stroke-width="3.0"/>
   <polyline fill="none" points="495,1070 775,1070 775,480 1065,480 1065,390 1125,390 1125,280 1255,280 1269,280" stroke="rgb(0, 0, 0)" stroke-linecap="square" stroke-width="3.0"/>
   <polyline fill="none" points="495,990 765,990 765,470 1075,470 1075,400 1135,400 1135,290 1255,290 1269,290" stroke="rgb(0, 0, 0)" stroke-linecap="square" stroke-width="3.0"/>
   <polyline fill="none" points="495,910 745,910 745,460 1085,460 1085,410 1145,410 1145,300 1255,300 1269,300" stroke="rgb(0, 0, 0)" stroke-linecap="square" stroke-width="3.0"/>
   <polyline fill="none" points="495,820 725,820 725,450 1095,450 1095,420 1155,420 1155,310 1255,310 1269,310" stroke="rgb(0, 0, 0)" stroke-linecap="square" stroke-width="3.0"/>
   <polyline fill="none" points="495,730 695,730 695,440 1165,440 1165,320 1255,320 1269,320" stroke="rgb(0, 0, 0)" stroke-linecap="square" stroke-width="3.0"/>
   <polyline fill="none" points="495,640 685,640 685,430 1175,430 1175,330 1255,330 1269,330" stroke="rgb(0, 0, 0)" stroke-linecap="square" stroke-width="3.0"/>
   <polyline fill="none" points="495,560 665,560 665,420 1015,420 1015,530 1185,530 1185,340 1255,340 1269,340" stroke="rgb(0, 0, 0)" stroke-linecap="square" stroke-width="3.0"/>
   <polyline fill="none" points="495,480 655,480 655,410 1005,410 1005,540 1205,540 1205,350 1255,350 1269,350" stroke="rgb(0, 0, 0)" stroke-linecap="square" stroke-width="3.0"/>
   <polyline fill="none" points="495,400 665,400 665,380 965,380 965,400 995,400 995,550 1215,550 1215,360 1255,360 1269,360" stroke="rgb(0, 0, 0)" stroke-linecap="square" stroke-width="3.0"/>
   <polyline fill="none" points="495,310 975,310 975,390 985,390 985,560 1225,560 1225,370 1255,370 1269,370" stroke="rgb(0, 0, 0)" stroke-linecap="square" stroke-width="3.0"/>
   <polyline fill="none" points="495,220 985,220 985,370 955,370 955,580 1235,580 1235,380 1255,380 1269,380" stroke="rgb(0, 0, 0)" stroke-linecap="square" stroke-width="3.0"/>
   <polyline fill="none" points="495,120 995,120 995,330 945,330 945,590 1245,590 1245,390 1255,390 1269,390" stroke="rgb(0, 0, 0)" stroke-linecap="square" stroke-width="3.0"/>
   <polyline fill="none" points="495,30 1005,30 1005,290 915,290 915,600 1255,600 1255,400 1269,400" stroke="rgb(0, 0, 0)" stroke-linecap="square" stroke-width="3.0"/>
   <polyline fill="none" points="1269,399 1269,246 1274,241" stroke="rgb(0, 0, 0)" stroke-linecap="square" stroke-width="5.0"/>
   <text fill="rgb(0, 0, 0)" font-family="SansSerif" font-size="7" x="1262.0" y="247.0">0</text>
   <text fill="rgb(0, 0, 0)" font-family="SansSerif" font-size="7" x="1262.0" y="257.0">1</text>
   <text fill="rgb(0, 0, 0)" font-family="SansSerif" font-size="7" x="1262.0" y="267.0">2</text>
   <text fill="rgb(0, 0, 0)" font-family="SansSerif" font-size="7" x="1262.0" y="277.0">3</text>
   <text fill="rgb(0, 0, 0)" font-family="SansSerif" font-size="7" x="1262.0" y="287.0">4</text>
   <text fill="rgb(0, 0, 0)" font-family="SansSerif" font-size="7" x="1262.0" y="297.0">5</text>
   <text fill="rgb(0, 0, 0)" font-family="SansSerif" font-size="7" x="1262.0" y="307.0">6</text>
   <text fill="rgb(0, 0, 0)" font-family="SansSerif" font-size="7" x="1262.0" y="317.0">7</text>
   <text fill="rgb(0, 0, 0)" font-family="SansSerif" font-size="7" x="1262.0" y="327.0">8</text>
   <text fill="rgb(0, 0, 0)" font-family="SansSerif" font-size="7" x="1262.0" y="337.0">9</text>
   <text fill="rgb(0, 0, 0)" font-family="SansSerif" font-size="7" x="1258.0" y="347.0">10</text>
   <text fill="rgb(0, 0, 0)" font-family="SansSerif" font-size="7" x="1258.0" y="357.0">11</text>
   <text fill="rgb(0, 0, 0)" font-family="SansSerif" font-size="7" x="1258.0" y="367.0">12</text>
   <text fill="rgb(0, 0, 0)" font-family="SansSerif" font-size="7" x="1258.0" y="377.0">13</text>
   <text fill="rgb(0, 0, 0)" font-family="SansSerif" font-size="7" x="1258.0" y="387.0">14</text>
   <text fill="rgb(0, 0, 0)" font-family="SansSerif" font-size="7" x="1258.0" y="397.0">15</text>
   <ellipse cx="1275.0" cy="240.0" fill="rgb(0, 0, 0)" rx="2.0" ry="2.0" stroke="none" stroke-width="5.0"/>
   <ellipse cx="1255.0" cy="250.0" fill="rgb(0, 0, 0)" rx="2.0" ry="2.0" stroke="none" stroke-width="5.0"/>
   <ellipse cx="1255.0" cy="260.0" fill="rgb(0, 0, 0)" rx="2.0" ry="2.0" stroke="none" stroke-width="5.0"/>
   <ellipse cx="1255.0" cy="270.0" fill="rgb(0, 0, 0)" rx="2.0" ry="2.0" stroke="none" stroke-width="5.0"/>
   <ellipse cx="1255.0" cy="280.0" fill="rgb(0, 0, 0)" rx="2.0" ry="2.0" stroke="none" stroke-width="5.0"/>
   <ellipse cx="1255.0" cy="290.0" fill="rgb(0, 0, 0)" rx="2.0" ry="2.0" stroke="none" stroke-width="5.0"/>
   <ellipse cx="1255.0" cy="300.0" fill="rgb(0, 0, 0)" rx="2.0" ry="2.0" stroke="none" stroke-width="5.0"/>
   <ellipse cx="1255.0" cy="310.0" fill="rgb(0, 0, 0)" rx="2.0" ry="2.0" stroke="none" stroke-width="5.0"/>
   <ellipse cx="1255.0" cy="320.0" fill="rgb(0, 0, 0)" rx="2.0" ry="2.0" stroke="none" stroke-width="5.0"/>
   <ellipse cx="1255.0" cy="330.0" fill="rgb(0, 0, 0)" rx="2.0" ry="2.0" stroke="none" stroke-width="5.0"/>
   <ellipse cx="1255.0" cy="340.0" fill="rgb(0, 0, 0)" rx="2.0" ry="2.0" stroke="none" stroke-width="5.0"/>
   <ellipse cx="1255.0" cy="350.0" fill="rgb(0, 0, 0)" rx="2.0" ry="2.0" stroke="none" stroke-width="5.0"/>
   <ellipse cx="1255.0" cy="360.0" fill="rgb(0, 0, 0)" rx="2.0" ry="2.0" stroke="none" stroke-width="5.0"/>
   <ellipse cx="1255.0" cy="370.0" fill="rgb(0, 0, 0)" rx="2.0" ry="2.0" stroke="none" stroke-width="5.0"/>
   <ellipse cx="1255.0" cy="380.0" fill="rgb(0, 0, 0)" rx="2.0" ry="2.0" stroke="none" stroke-width="5.0"/>
   <ellipse cx="1255.0" cy="390.0" fill="rgb(0, 0, 0)" rx="2.0" ry="2.0" stroke="none" stroke-width="5.0"/>
   <ellipse cx="1255.0" cy="400.0" fill="rgb(0, 0, 0)" rx="2.0" ry="2.0" stroke="none" stroke-width="5.0"/>
   <path d="M470.0,1095.0 A25.0,25.0 90.0 0,0 470.0,1045.0" fill="none" stroke="rgb(0, 0, 0)" stroke-width="2.0"/>
   <polyline fill="none" points="470,1045 446,1045 446,1095 470,1095" stroke="rgb(0, 0, 0)" stroke-linecap="square" stroke-width="2.0"/>
   <path d="M470.0,1175.0 A25.0,25.0 90.0 0,0 470.0,1125.0" fill="none" stroke="rgb(0, 0, 0)" stroke-width="2.0"/>
   <polyline fill="none" points="470,1125 446,1125 446,1175 470,1175" stroke="rgb(0, 0, 0)" stroke-linecap="square" stroke-width="2.0"/>
   <path d="M470.0,145.0 A25.0,25.0 90.0 0,0 470.0,95.0" fill="none" stroke="rgb(0, 0, 0)" stroke-width="2.0"/>
   <polyline fill="none" points="470,95 446,95 446,145 470,145" stroke="rgb(0, 0, 0)" stroke-linecap="square" stroke-width="2.0"/>
   <path d="M470.0,1255.0 A25.0,25.0 90.0 0,0 470.0,1205.0" fill="none" stroke="rgb(0, 0, 0)" stroke-width="2.0"/>
   <polyline fill="none" points="470,1205 446,1205 446,1255 470,1255" stroke="rgb(0, 0, 0)" stroke-linecap="square" stroke-width="2.0"/>
   <path d="M470.0,1335.0 A25.0,25.0 90.0 0,0 470.0,1285.0" fill="none" stroke="rgb(0, 0, 0)" stroke-width="2.0"/>
   <polyline fill="none" points="470,1285 446,1285 446,1335 470,1335" stroke="rgb(0, 0, 0)" stroke-linecap="square" stroke-width="2.0"/>
   <path d="M470.0,245.0 A25.0,25.0 90.0 0,0 470.0,195.0" fill="none" stroke="rgb(0, 0, 0)" stroke-width="2.0"/>
   <polyline fill="none" points="470,195 446,195 446,245 470,245" stroke="rgb(0, 0, 0)" stroke-linecap="square" stroke-width="2.0"/>
   <path d="M470.0,55.0 A25.0,25.0 90.0 0,0 470.0,5.0" fill="none" stroke="rgb(0, 0, 0)" stroke-width="2.0"/>
   <polyline fill="none" points="470,5 446,5 446,55 470,55" stroke="rgb(0, 0, 0)" stroke-linecap="square" stroke-width="2.0"/>
   <path d="M470.0,335.0 A25.0,25.0 90.0 0,0 470.0,285.0" fill="none" stroke="rgb(0, 0, 0)" stroke-width="2.0"/>
   <polyline fill="none" points="470,285 446,285 446,335 470,335" stroke="rgb(0, 0, 0)" stroke-linecap="square" stroke-width="2.0"/>
   <path d="M470.0,425.0 A25.0,25.0 90.0 0,0 470.0,375.0" fill="none" stroke="rgb(0, 0, 0)" stroke-width="2.0"/>
   <polyline fill="none" points="470,375 446,375 446,425 470,425" stroke="rgb(0, 0, 0)" stroke-linecap="square" stroke-width="2.0"/>
   <path d="M470.0,505.0 A25.0,25.0 90.0 0,0 470.0,455.0" fill="none" stroke="rgb(0, 0, 0)" stroke-width="2.0"/>
   <polyline fill="none" points="470,455 446,455 446,505 470,505" stroke="rgb(0, 0, 0)" stroke-linecap="square" stroke-width="2.0"/>
   <path d="M470.0,585.0 A25.0,25.0 90.0 0,0 470.0,535.0" fill="none" stroke="rgb(0, 0, 0)" stroke-width="2.0"/>
   <polyline fill="none" points="470,535 446,535 446,585 470,585" stroke="rgb(0, 0, 0)" stroke-linecap="square" stroke-width="2.0"/>
   <path d="M470.0,665.0 A25.0,25.0 90.0 0,0 470.0,615.0" fill="none" stroke="rgb(0, 0, 0)" stroke-width="2.0"/>
   <polyline fill="none" points="470,615 446,615 446,665 470,665" stroke="rgb(0, 0, 0)" stroke-linecap="square" stroke-width="2.0"/>
   <path d="M470.0,755.0 A25.0,25.0 90.0 0,0 470.0,705.0" fill="none" stroke="rgb(0, 0, 0)" stroke-width="2.0"/>
   <polyline fill="none" points="470,705 446,705 446,755 470,755" stroke="rgb(0, 0, 0)" stroke-linecap="square" stroke-width="2.0"/>
   <path d="M470.0,845.0 A25.0,25.0 90.0 0,0 470.0,795.0" fill="none" stroke="rgb(0, 0, 0)" stroke-width="2.0"/>
   <polyline fill="none" points="470,795 446,795 446,845 470,845" stroke="rgb(0, 0, 0)" stroke-linecap="square" stroke-width="2.0"/>
   <path d="M470.0,935.0 A25.0,25.0 90.0 0,0 470.0,885.0" fill="none" stroke="rgb(0, 0, 0)" stroke-width="2.0"/>
   <polyline fill="none" points="470,885 446,885 446,935 470,935" stroke="rgb(0, 0, 0)" stroke-linecap="square" stroke-width="2.0"/>
   <path d="M470.0,1015.0 A25.0,25.0 90.0 0,0 470.0,965.0" fill="none" stroke="rgb(0, 0, 0)" stroke-width="2.0"/>
   <polyline fill="none" points="470,965 446,965 446,1015 470,1015" stroke="rgb(0, 0, 0)" stroke-linecap="square" stroke-width="2.0"/>
</svg>
