<?xml version="1.0" encoding="UTF-8" standalone="no"?>
<svg xmlns="http://www.w3.org/2000/svg" version="1.1" viewBox="0 0 190 446">
   <polyline fill="none" points="45,188 45,258" stroke="rgb(0, 0, 0)" stroke-linecap="square" stroke-width="4.0"/>
   <polyline fill="none" points="155,218 155,228" stroke="rgb(0, 0, 0)" stroke-linecap="square" stroke-width="4.0"/>
   <polyline fill="none" points="85,188 85,228 155,228 155,378 45,378" stroke="rgb(0, 0, 0)" stroke-linecap="square" stroke-width="4.0"/>
   <polyline fill="none" points="145,68 145,118 65,118 65,128" stroke="rgb(0, 0, 0)" stroke-linecap="square" stroke-width="4.0"/>
   <ellipse cx="155.0" cy="228.0" fill="rgb(0, 0, 0)" rx="6.0" ry="6.0" stroke="none" stroke-width="4.0"/>
   <polyline fill="none" points="45,188 45,186" stroke="rgb(0, 0, 0)" stroke-linecap="square" stroke-width="3.0"/>
   <polyline fill="none" points="85,188 85,186" stroke="rgb(0, 0, 0)" stroke-linecap="square" stroke-width="3.0"/>
   <path d=" M65.0,128.0 C40.0,148.0 40.0,148.0 40.0,178.0 C65.0,165.0 65.0,165.0 90.0,178.0 C90.0,148.0 90.0,148.0 65.0,128.0 Z" fill="none" stroke="rgb(0, 0, 0)" stroke-linecap="square" stroke-width="2.0"/>
   <path d=" M40.0,188.0 C65.0,175.0 65.0,175.0 90.0,188.0" fill="none" stroke="rgb(0, 0, 0)" stroke-linecap="square" stroke-width="2.0"/>
   <polyline fill="none" points="7,260 84,260" stroke="rgb(0, 0, 0)" stroke-linecap="square" stroke-width="2.0"/>
   <polyline fill="none" points="85,260 85,297" stroke="rgb(0, 0, 0)" stroke-linecap="square" stroke-width="2.0"/>
   <polyline fill="none" points="85,298 8,298" stroke="rgb(0, 0, 0)" stroke-linecap="square" stroke-width="2.0"/>
   <polyline fill="none" points="7,298 7,261" stroke="rgb(0, 0, 0)" stroke-linecap="square" stroke-width="2.0"/>
   <text fill="rgb(0, 0, 0)" font-family="SansSerif" font-size="12" x="36.0" y="285.0">x16</text>
   <text fill="rgb(0, 0, 0)" font-family="SansSerif" font-size="16" font-weight="bold" x="40.0" y="317.0">A</text>
   <ellipse cx="45.0" cy="258.0" fill="rgb(0, 0, 0)" rx="2.0" ry="2.0" stroke="none" stroke-width="2.0"/>
   <polyline fill="none" points="7,380 84,380" stroke="rgb(0, 0, 0)" stroke-linecap="square" stroke-width="2.0"/>
   <polyline fill="none" points="85,380 85,417" stroke="rgb(0, 0, 0)" stroke-linecap="square" stroke-width="2.0"/>
   <polyline fill="none" points="85,418 8,418" stroke="rgb(0, 0, 0)" stroke-linecap="square" stroke-width="2.0"/>
   <polyline fill="none" points="7,418 7,381" stroke="rgb(0, 0, 0)" stroke-linecap="square" stroke-width="2.0"/>
   <text fill="rgb(0, 0, 0)" font-family="SansSerif" font-size="12" x="36.0" y="405.0">x16</text>
   <text fill="rgb(0, 0, 0)" font-family="SansSerif" font-size="16" font-weight="bold" x="39.0" y="437.0">B</text>
   <ellipse cx="45.0" cy="378.0" fill="rgb(0, 0, 0)" rx="2.0" ry="2.0" stroke="none" stroke-width="2.0"/>
   <rect fill="none" height="38" rx="3.0" ry="3.0" stroke="rgb(0, 0, 0)" stroke-linecap="square" stroke-width="2.0" width="78" x="107" y="30"/>
   <text fill="rgb(0, 0, 0)" font-family="SansSerif" font-size="12" x="136.0" y="55.0">x16</text>
   <text fill="rgb(0, 0, 0)" font-family="SansSerif" font-size="16" font-weight="bold" x="139.0" y="22.0">O</text>
   <ellipse cx="145.0" cy="68.0" fill="rgb(0, 0, 0)" rx="2.0" ry="2.0" stroke="none" stroke-width="2.0"/>
</svg>
