<?xml version="1.0" encoding="UTF-8" standalone="no"?>
<svg xmlns="http://www.w3.org/2000/svg" version="1.1" viewBox="0 0 3515 378">
   <polyline fill="none" points="3239,258 3249,258" stroke="rgb(0, 0, 0)" stroke-linecap="square" stroke-width="3.0"/>
   <polyline fill="none" points="1579,208 1619,208" stroke="rgb(0, 0, 0)" stroke-linecap="square" stroke-width="3.0"/>
   <polyline fill="none" points="3149,48 3149,88" stroke="rgb(0, 0, 0)" stroke-linecap="square" stroke-width="3.0"/>
   <polyline fill="none" points="3159,208 3179,208" stroke="rgb(0, 0, 0)" stroke-linecap="square" stroke-width="3.0"/>
   <polyline fill="none" points="319,58 319,118" stroke="rgb(0, 0, 0)" stroke-linecap="square" stroke-width="3.0"/>
   <polyline fill="none" points="2379,208 2419,208" stroke="rgb(0, 0, 0)" stroke-linecap="square" stroke-width="3.0"/>
   <polyline fill="none" points="1289,208 1329,208 1359,208" stroke="rgb(0, 0, 0)" stroke-linecap="square" stroke-width="3.0"/>
   <polyline fill="none" points="529,208 569,208" stroke="rgb(0, 0, 0)" stroke-linecap="square" stroke-width="3.0"/>
   <polyline fill="none" points="2429,58 2429,118" stroke="rgb(0, 0, 0)" stroke-linecap="square" stroke-width="3.0"/>
   <polyline fill="none" points="1269,158 1329,158 1329,208" stroke="rgb(0, 0, 0)" stroke-linecap="square" stroke-width="3.0"/>
   <polyline fill="none" points="279,208 309,208" stroke="rgb(0, 0, 0)" stroke-linecap="square" stroke-width="3.0"/>
   <polyline fill="none" points="2439,148 2439,158 2859,158" stroke="rgb(0, 0, 0)" stroke-linecap="square" stroke-width="3.0"/>
   <polyline fill="none" points="1049,118 1049,158 1239,158" stroke="rgb(0, 0, 0)" stroke-linecap="square" stroke-width="3.0"/>
   <polyline fill="none" points="1839,208 1869,208 1879,208" stroke="rgb(0, 0, 0)" stroke-linecap="square" stroke-width="3.0"/>
   <polyline fill="none" points="1829,158 1869,158 2079,158 2079,138" stroke="rgb(0, 0, 0)" stroke-linecap="square" stroke-width="3.0"/>
   <polyline fill="none" points="2099,208 2119,208" stroke="rgb(0, 0, 0)" stroke-linecap="square" stroke-width="3.0"/>
   <polyline fill="none" points="2179,258 2189,258" stroke="rgb(0, 0, 0)" stroke-linecap="square" stroke-width="3.0"/>
   <polyline fill="none" points="1059,358 1599,358 2109,358 2109,228 2119,228" stroke="rgb(0, 0, 0)" stroke-linecap="square" stroke-width="3.0"/>
   <polyline fill="none" points="2889,158 2929,158 2929,208 2939,208" stroke="rgb(0, 0, 0)" stroke-linecap="square" stroke-width="3.0"/>
   <polyline fill="none" points="2929,158 3139,158 3139,118" stroke="rgb(0, 0, 0)" stroke-linecap="square" stroke-width="3.0"/>
   <polyline fill="none" points="279,308 299,308" stroke="rgb(0, 0, 0)" stroke-linecap="square" stroke-width="3.0"/>
   <polyline fill="none" points="789,208 819,208" stroke="rgb(0, 0, 0)" stroke-linecap="square" stroke-width="3.0"/>
   <polyline fill="none" points="3399,208 3439,208 3439,158" stroke="rgb(0, 0, 0)" stroke-linecap="square" stroke-width="3.0"/>
   <polyline fill="none" points="1369,48 1369,88" stroke="rgb(0, 0, 0)" stroke-linecap="square" stroke-width="3.0"/>
   <polyline fill="none" points="3159,118 3159,158 3349,158" stroke="rgb(0, 0, 0)" stroke-linecap="square" stroke-width="3.0"/>
   <polyline fill="none" points="3179,228 3169,228 3169,358 2669,358 2669,228 2679,228" stroke="rgb(0, 0, 0)" stroke-linecap="square" stroke-width="3.0"/>
   <polyline fill="none" points="2109,358 2669,358" stroke="rgb(0, 0, 0)" stroke-linecap="square" stroke-width="3.0"/>
   <polyline fill="none" points="2639,208 2679,208" stroke="rgb(0, 0, 0)" stroke-linecap="square" stroke-width="3.0"/>
   <polyline fill="none" points="1879,228 1859,228 1859,308 1329,308 1329,228 1359,228" stroke="rgb(0, 0, 0)" stroke-linecap="square" stroke-width="3.0"/>
   <polyline fill="none" points="2099,138 2099,158 2289,158" stroke="rgb(0, 0, 0)" stroke-linecap="square" stroke-width="3.0"/>
   <polyline fill="none" points="1379,118 1379,158 1799,158" stroke="rgb(0, 0, 0)" stroke-linecap="square" stroke-width="3.0"/>
   <polyline fill="none" points="2899,208 2929,208" stroke="rgb(0, 0, 0)" stroke-linecap="square" stroke-width="3.0"/>
   <polyline fill="none" points="1859,308 2389,308 2919,308 2919,228 2939,228" stroke="rgb(0, 0, 0)" stroke-linecap="square" stroke-width="3.0"/>
   <polyline fill="none" points="569,228 559,228 559,358" stroke="rgb(0, 0, 0)" stroke-linecap="square" stroke-width="3.0"/>
   <polyline fill="none" points="2089,58 2089,108" stroke="rgb(0, 0, 0)" stroke-linecap="square" stroke-width="3.0"/>
   <polyline fill="none" points="779,158 819,158" stroke="rgb(0, 0, 0)" stroke-linecap="square" stroke-width="3.0"/>
   <polyline fill="none" points="1619,228 1599,228 1599,358" stroke="rgb(0, 0, 0)" stroke-linecap="square" stroke-width="3.0"/>
   <polyline fill="none" points="1129,258 1139,258" stroke="rgb(0, 0, 0)" stroke-linecap="square" stroke-width="3.0"/>
   <polyline fill="none" points="2319,158 2379,158 2379,208 2339,208" stroke="rgb(0, 0, 0)" stroke-linecap="square" stroke-width="3.0"/>
   <polyline fill="none" points="259,358 559,358 1059,358 1059,228 1069,228" stroke="rgb(0, 0, 0)" stroke-linecap="square" stroke-width="3.0"/>
   <polyline fill="none" points="809,308 1329,308" stroke="rgb(0, 0, 0)" stroke-linecap="square" stroke-width="3.0"/>
   <polyline fill="none" points="119,318 139,318" stroke="rgb(0, 0, 0)" stroke-linecap="square" stroke-width="3.0"/>
   <polyline fill="none" points="1869,158 1869,208" stroke="rgb(0, 0, 0)" stroke-linecap="square" stroke-width="3.0"/>
   <polyline fill="none" points="1329,158 1359,158 1359,118" stroke="rgb(0, 0, 0)" stroke-linecap="square" stroke-width="3.0"/>
   <polyline fill="none" points="2419,228 2389,228 2389,308" stroke="rgb(0, 0, 0)" stroke-linecap="square" stroke-width="3.0"/>
   <polyline fill="none" points="1029,118 1029,158 819,158 819,208 829,208" stroke="rgb(0, 0, 0)" stroke-linecap="square" stroke-width="3.0"/>
   <polyline fill="none" points="1039,48 1039,88" stroke="rgb(0, 0, 0)" stroke-linecap="square" stroke-width="3.0"/>
   <polyline fill="none" points="3469,48 3439,48 3439,58" stroke="rgb(0, 0, 0)" stroke-linecap="square" stroke-width="3.0"/>
   <polyline fill="none" points="829,228 809,228 809,308 299,308 299,228 309,228" stroke="rgb(0, 0, 0)" stroke-linecap="square" stroke-width="3.0"/>
   <polyline fill="none" points="1049,208 1069,208" stroke="rgb(0, 0, 0)" stroke-linecap="square" stroke-width="3.0"/>
   <polyline fill="none" points="2379,158 2419,158 2419,148" stroke="rgb(0, 0, 0)" stroke-linecap="square" stroke-width="3.0"/>
   <ellipse cx="2379.0" cy="208.0" fill="rgb(0, 0, 0)" rx="5.0" ry="5.0" stroke="none" stroke-width="3.0"/>
   <ellipse cx="1869.0" cy="158.0" fill="rgb(0, 0, 0)" rx="5.0" ry="5.0" stroke="none" stroke-width="3.0"/>
   <ellipse cx="819.0" cy="208.0" fill="rgb(0, 0, 0)" rx="5.0" ry="5.0" stroke="none" stroke-width="3.0"/>
   <ellipse cx="1599.0" cy="358.0" fill="rgb(0, 0, 0)" rx="5.0" ry="5.0" stroke="none" stroke-width="3.0"/>
   <ellipse cx="3439.0" cy="158.0" fill="rgb(0, 0, 0)" rx="5.0" ry="5.0" stroke="none" stroke-width="3.0"/>
   <ellipse cx="139.0" cy="318.0" fill="rgb(0, 0, 0)" rx="5.0" ry="5.0" stroke="none" stroke-width="3.0"/>
   <ellipse cx="559.0" cy="358.0" fill="rgb(0, 0, 0)" rx="5.0" ry="5.0" stroke="none" stroke-width="3.0"/>
   <ellipse cx="209.0" cy="208.0" fill="rgb(0, 0, 0)" rx="5.0" ry="5.0" stroke="none" stroke-width="3.0"/>
   <ellipse cx="1329.0" cy="308.0" fill="rgb(0, 0, 0)" rx="5.0" ry="5.0" stroke="none" stroke-width="3.0"/>
   <ellipse cx="1869.0" cy="208.0" fill="rgb(0, 0, 0)" rx="5.0" ry="5.0" stroke="none" stroke-width="3.0"/>
   <ellipse cx="809.0" cy="308.0" fill="rgb(0, 0, 0)" rx="5.0" ry="5.0" stroke="none" stroke-width="3.0"/>
   <ellipse cx="2929.0" cy="158.0" fill="rgb(0, 0, 0)" rx="5.0" ry="5.0" stroke="none" stroke-width="3.0"/>
   <ellipse cx="1859.0" cy="308.0" fill="rgb(0, 0, 0)" rx="5.0" ry="5.0" stroke="none" stroke-width="3.0"/>
   <ellipse cx="299.0" cy="308.0" fill="rgb(0, 0, 0)" rx="5.0" ry="5.0" stroke="none" stroke-width="3.0"/>
   <ellipse cx="209.0" cy="298.0" fill="rgb(0, 0, 0)" rx="5.0" ry="5.0" stroke="none" stroke-width="3.0"/>
   <ellipse cx="2389.0" cy="308.0" fill="rgb(0, 0, 0)" rx="5.0" ry="5.0" stroke="none" stroke-width="3.0"/>
   <ellipse cx="2929.0" cy="208.0" fill="rgb(0, 0, 0)" rx="5.0" ry="5.0" stroke="none" stroke-width="3.0"/>
   <ellipse cx="1329.0" cy="158.0" fill="rgb(0, 0, 0)" rx="5.0" ry="5.0" stroke="none" stroke-width="3.0"/>
   <ellipse cx="2669.0" cy="358.0" fill="rgb(0, 0, 0)" rx="5.0" ry="5.0" stroke="none" stroke-width="3.0"/>
   <ellipse cx="1059.0" cy="358.0" fill="rgb(0, 0, 0)" rx="5.0" ry="5.0" stroke="none" stroke-width="3.0"/>
   <ellipse cx="2379.0" cy="158.0" fill="rgb(0, 0, 0)" rx="5.0" ry="5.0" stroke="none" stroke-width="3.0"/>
   <ellipse cx="1329.0" cy="208.0" fill="rgb(0, 0, 0)" rx="5.0" ry="5.0" stroke="none" stroke-width="3.0"/>
   <ellipse cx="2109.0" cy="358.0" fill="rgb(0, 0, 0)" rx="5.0" ry="5.0" stroke="none" stroke-width="3.0"/>
   <ellipse cx="819.0" cy="158.0" fill="rgb(0, 0, 0)" rx="5.0" ry="5.0" stroke="none" stroke-width="3.0"/>
   <ellipse cx="1040.0" cy="39.0" fill="none" rx="9.0" ry="9.0" stroke="rgb(0, 0, 0)" stroke-width="2.0"/>
   <text fill="rgb(0, 0, 0)" font-family="SansSerif" font-size="12" x="1033.0" y="45.0">x1</text>
   <text fill="rgb(0, 0, 0)" font-family="SansSerif" font-size="16" font-weight="bold" x="1014.0" y="22.0">step_2</text>
   <ellipse cx="1039.0" cy="48.0" fill="rgb(0, 0, 0)" rx="2.0" ry="2.0" stroke="none" stroke-width="2.0"/>
   <ellipse cx="1370.0" cy="39.0" fill="none" rx="9.0" ry="9.0" stroke="rgb(0, 0, 0)" stroke-width="2.0"/>
   <text fill="rgb(0, 0, 0)" font-family="SansSerif" font-size="12" x="1363.0" y="45.0">x1</text>
   <text fill="rgb(0, 0, 0)" font-family="SansSerif" font-size="16" font-weight="bold" x="1344.0" y="22.0">step_3</text>
   <ellipse cx="1369.0" cy="48.0" fill="rgb(0, 0, 0)" rx="2.0" ry="2.0" stroke="none" stroke-width="2.0"/>
   <ellipse cx="2090.0" cy="49.0" fill="none" rx="9.0" ry="9.0" stroke="rgb(0, 0, 0)" stroke-width="2.0"/>
   <text fill="rgb(0, 0, 0)" font-family="SansSerif" font-size="12" x="2083.0" y="55.0">x1</text>
   <text fill="rgb(0, 0, 0)" font-family="SansSerif" font-size="16" font-weight="bold" x="2064.0" y="32.0">step_4</text>
   <ellipse cx="2089.0" cy="58.0" fill="rgb(0, 0, 0)" rx="2.0" ry="2.0" stroke="none" stroke-width="2.0"/>
   <ellipse cx="2430.0" cy="49.0" fill="none" rx="9.0" ry="9.0" stroke="rgb(0, 0, 0)" stroke-width="2.0"/>
   <text fill="rgb(0, 0, 0)" font-family="SansSerif" font-size="12" x="2423.0" y="55.0">x1</text>
   <text fill="rgb(0, 0, 0)" font-family="SansSerif" font-size="16" font-weight="bold" x="2404.0" y="32.0">step_5</text>
   <ellipse cx="2429.0" cy="58.0" fill="rgb(0, 0, 0)" rx="2.0" ry="2.0" stroke="none" stroke-width="2.0"/>
   <ellipse cx="3150.0" cy="39.0" fill="none" rx="9.0" ry="9.0" stroke="rgb(0, 0, 0)" stroke-width="2.0"/>
   <text fill="rgb(0, 0, 0)" font-family="SansSerif" font-size="12" x="3143.0" y="45.0">x1</text>
   <text fill="rgb(0, 0, 0)" font-family="SansSerif" font-size="16" font-weight="bold" x="3124.0" y="22.0">step_6</text>
   <ellipse cx="3149.0" cy="48.0" fill="rgb(0, 0, 0)" rx="2.0" ry="2.0" stroke="none" stroke-width="2.0"/>
   <polyline fill="none" points="101,310 118,310" stroke="rgb(0, 0, 0)" stroke-linecap="square" stroke-width="2.0"/>
   <polyline fill="none" points="119,310 119,327" stroke="rgb(0, 0, 0)" stroke-linecap="square" stroke-width="2.0"/>
   <polyline fill="none" points="119,328 102,328" stroke="rgb(0, 0, 0)" stroke-linecap="square" stroke-width="2.0"/>
   <polyline fill="none" points="101,328 101,311" stroke="rgb(0, 0, 0)" stroke-linecap="square" stroke-width="2.0"/>
   <text fill="rgb(0, 0, 0)" font-family="SansSerif" font-size="12" x="103.0" y="325.0">x1</text>
   <text fill="rgb(0, 0, 0)" font-family="SansSerif" font-size="16" font-weight="bold" x="5.0" y="326.0">clock_pulse</text>
   <ellipse cx="119.0" cy="318.0" fill="rgb(0, 0, 0)" rx="2.0" ry="2.0" stroke="none" stroke-width="2.0"/>
   <ellipse cx="3470.0" cy="39.0" fill="none" rx="9.0" ry="9.0" stroke="rgb(0, 0, 0)" stroke-width="2.0"/>
   <text fill="rgb(0, 0, 0)" font-family="SansSerif" font-size="12" x="3463.0" y="45.0">x1</text>
   <text fill="rgb(0, 0, 0)" font-family="SansSerif" font-size="16" font-weight="bold" x="3444.0" y="22.0">step_7</text>
   <ellipse cx="3469.0" cy="48.0" fill="rgb(0, 0, 0)" rx="2.0" ry="2.0" stroke="none" stroke-width="2.0"/>
   <text fill="rgb(0, 0, 0)" font-family="Monospaced" font-size="12" x="3489.0" y="83.0">0</text>
   <ellipse cx="3499.0" cy="78.0" fill="rgb(0, 0, 0)" rx="2.0" ry="2.0" stroke="none" stroke-width="1.0"/>
   <polyline fill="none" points="141,200 158,200" stroke="rgb(0, 0, 0)" stroke-linecap="square" stroke-width="2.0"/>
   <polyline fill="none" points="159,200 159,217" stroke="rgb(0, 0, 0)" stroke-linecap="square" stroke-width="2.0"/>
   <polyline fill="none" points="159,218 142,218" stroke="rgb(0, 0, 0)" stroke-linecap="square" stroke-width="2.0"/>
   <polyline fill="none" points="141,218 141,201" stroke="rgb(0, 0, 0)" stroke-linecap="square" stroke-width="2.0"/>
   <text fill="rgb(0, 0, 0)" font-family="SansSerif" font-size="12" x="143.0" y="215.0">x1</text>
   <text fill="rgb(0, 0, 0)" font-family="SansSerif" font-size="16" font-weight="bold" x="99.0" y="216.0">reset</text>
   <ellipse cx="159.0" cy="208.0" fill="rgb(0, 0, 0)" rx="2.0" ry="2.0" stroke="none" stroke-width="2.0"/>
   <ellipse cx="320.0" cy="49.0" fill="none" rx="9.0" ry="9.0" stroke="rgb(0, 0, 0)" stroke-width="2.0"/>
   <text fill="rgb(0, 0, 0)" font-family="SansSerif" font-size="12" x="313.0" y="55.0">x1</text>
   <text fill="rgb(0, 0, 0)" font-family="SansSerif" font-size="16" font-weight="bold" x="294.0" y="32.0">step_1</text>
   <ellipse cx="319.0" cy="58.0" fill="rgb(0, 0, 0)" rx="2.0" ry="2.0" stroke="none" stroke-width="2.0"/>
   <path d="M1054.0,103.0 A15.0,15.0 0.0 0,0 1024.0,103.0" fill="none" stroke="rgb(0, 0, 0)" stroke-width="2.0"/>
   <polyline fill="none" points="1024,103 1024,117 1054,117 1054,103" stroke="rgb(0, 0, 0)" stroke-linecap="square" stroke-width="2.0"/>
   <polygon fill="none" points="1249,158 1268,165 1268,151" stroke="rgb(0, 0, 0)" stroke-linecap="square" stroke-width="2.0"/>
   <ellipse fill="none" rx="4.5" ry="4.5" stroke="rgb(0, 0, 0)" stroke-width="2.0" transform="translate(1244.0 158.0) rotate(-180)"/>
   <ellipse cx="1239.0" cy="158.0" fill="rgb(0, 0, 0)" rx="2.0" ry="2.0" stroke="none" stroke-width="2.0"/>
   <ellipse cx="1269.0" cy="158.0" fill="rgb(0, 0, 0)" rx="2.0" ry="2.0" stroke="none" stroke-width="2.0"/>
   <path d="M1384.0,103.0 A15.0,15.0 0.0 0,0 1354.0,103.0" fill="none" stroke="rgb(0, 0, 0)" stroke-width="2.0"/>
   <polyline fill="none" points="1354,103 1354,117 1384,117 1384,103" stroke="rgb(0, 0, 0)" stroke-linecap="square" stroke-width="2.0"/>
   <polygon fill="none" points="1809,158 1828,165 1828,151" stroke="rgb(0, 0, 0)" stroke-linecap="square" stroke-width="2.0"/>
   <ellipse fill="none" rx="4.5" ry="4.5" stroke="rgb(0, 0, 0)" stroke-width="2.0" transform="translate(1804.0 158.0) rotate(-180)"/>
   <ellipse cx="1799.0" cy="158.0" fill="rgb(0, 0, 0)" rx="2.0" ry="2.0" stroke="none" stroke-width="2.0"/>
   <ellipse cx="1829.0" cy="158.0" fill="rgb(0, 0, 0)" rx="2.0" ry="2.0" stroke="none" stroke-width="2.0"/>
   <path d="M2104.0,123.0 A15.0,15.0 0.0 0,0 2074.0,123.0" fill="none" stroke="rgb(0, 0, 0)" stroke-width="2.0"/>
   <polyline fill="none" points="2074,123 2074,137 2104,137 2104,123" stroke="rgb(0, 0, 0)" stroke-linecap="square" stroke-width="2.0"/>
   <polygon fill="none" points="2299,158 2318,165 2318,151" stroke="rgb(0, 0, 0)" stroke-linecap="square" stroke-width="2.0"/>
   <ellipse fill="none" rx="4.5" ry="4.5" stroke="rgb(0, 0, 0)" stroke-width="2.0" transform="translate(2294.0 158.0) rotate(-180)"/>
   <ellipse cx="2289.0" cy="158.0" fill="rgb(0, 0, 0)" rx="2.0" ry="2.0" stroke="none" stroke-width="2.0"/>
   <ellipse cx="2319.0" cy="158.0" fill="rgb(0, 0, 0)" rx="2.0" ry="2.0" stroke="none" stroke-width="2.0"/>
   <path d="M2444.0,133.0 A15.0,15.0 0.0 0,0 2414.0,133.0" fill="none" stroke="rgb(0, 0, 0)" stroke-width="2.0"/>
   <polyline fill="none" points="2414,133 2414,147 2444,147 2444,133" stroke="rgb(0, 0, 0)" stroke-linecap="square" stroke-width="2.0"/>
   <polygon fill="none" points="2869,158 2888,165 2888,151" stroke="rgb(0, 0, 0)" stroke-linecap="square" stroke-width="2.0"/>
   <ellipse fill="none" rx="4.5" ry="4.5" stroke="rgb(0, 0, 0)" stroke-width="2.0" transform="translate(2864.0 158.0) rotate(-180)"/>
   <ellipse cx="2859.0" cy="158.0" fill="rgb(0, 0, 0)" rx="2.0" ry="2.0" stroke="none" stroke-width="2.0"/>
   <ellipse cx="2889.0" cy="158.0" fill="rgb(0, 0, 0)" rx="2.0" ry="2.0" stroke="none" stroke-width="2.0"/>
   <path d="M3164.0,103.0 A15.0,15.0 0.0 0,0 3134.0,103.0" fill="none" stroke="rgb(0, 0, 0)" stroke-width="2.0"/>
   <polyline fill="none" points="3134,103 3134,117 3164,117 3164,103" stroke="rgb(0, 0, 0)" stroke-linecap="square" stroke-width="2.0"/>
   <polygon fill="none" points="3359,158 3378,165 3378,151" stroke="rgb(0, 0, 0)" stroke-linecap="square" stroke-width="2.0"/>
   <ellipse fill="none" rx="4.5" ry="4.5" stroke="rgb(0, 0, 0)" stroke-width="2.0" transform="translate(3354.0 158.0) rotate(-180)"/>
   <ellipse cx="3349.0" cy="158.0" fill="rgb(0, 0, 0)" rx="2.0" ry="2.0" stroke="none" stroke-width="2.0"/>
   <ellipse cx="3379.0" cy="158.0" fill="rgb(0, 0, 0)" rx="2.0" ry="2.0" stroke="none" stroke-width="2.0"/>
   <polyline fill="none" points="3379,158 3439,158 3469,158 3469,108 3429,108 3429,88 3429,86" stroke="rgb(0, 0, 0)" stroke-linecap="square" stroke-width="3.0"/>
   <polyline fill="none" points="3499,78 3509,78 3509,98 3449,98 3449,88 3449,86" stroke="rgb(0, 0, 0)" stroke-linecap="square" stroke-width="3.0"/>
   <path d=" M3439.0,58.0 C3424.0,68.0 3424.0,68.0 3424.0,88.0 C3439.0,80.0 3439.0,80.0 3454.0,88.0 C3454.0,68.0 3454.0,68.0 3439.0,58.0 Z" fill="none" stroke="rgb(0, 0, 0)" stroke-linecap="square" stroke-width="2.0"/>
   <polygon fill="none" points="179,318 160,311 160,325" stroke="rgb(0, 0, 0)" stroke-linecap="square" stroke-width="2.0"/>
   <ellipse cx="184.0" cy="318.0" fill="none" rx="4.5" ry="4.5" stroke="rgb(0, 0, 0)" stroke-width="2.0"/>
   <ellipse cx="189.0" cy="318.0" fill="rgb(0, 0, 0)" rx="2.0" ry="2.0" stroke="none" stroke-width="2.0"/>
   <ellipse cx="159.0" cy="318.0" fill="rgb(0, 0, 0)" rx="2.0" ry="2.0" stroke="none" stroke-width="2.0"/>
   <polyline fill="none" points="209,298 209,348 229,348 231,348" stroke="rgb(0, 0, 0)" stroke-linecap="square" stroke-width="3.0"/>
   <polyline fill="none" points="159,318 139,318 139,368 229,368 231,368" stroke="rgb(0, 0, 0)" stroke-linecap="square" stroke-width="3.0"/>
   <path d=" M259.0,358.0 C249.0,343.0 249.0,343.0 229.0,343.0 C237.0,358.0 237.0,358.0 229.0,373.0 C249.0,373.0 249.0,373.0 259.0,358.0 Z" fill="none" stroke="rgb(0, 0, 0)" stroke-linecap="square" stroke-width="2.0"/>
   <polygon fill="none" points="269,208 250,201 250,215" stroke="rgb(0, 0, 0)" stroke-linecap="square" stroke-width="2.0"/>
   <ellipse cx="274.0" cy="208.0" fill="none" rx="4.5" ry="4.5" stroke="rgb(0, 0, 0)" stroke-width="2.0"/>
   <ellipse cx="279.0" cy="208.0" fill="rgb(0, 0, 0)" rx="2.0" ry="2.0" stroke="none" stroke-width="2.0"/>
   <ellipse cx="249.0" cy="208.0" fill="rgb(0, 0, 0)" rx="2.0" ry="2.0" stroke="none" stroke-width="2.0"/>
   <polyline fill="none" points="159,208 209,208 209,298 249,298 251,298" stroke="rgb(0, 0, 0)" stroke-linecap="square" stroke-width="3.0"/>
   <polyline fill="none" points="189,318 249,318 251,318" stroke="rgb(0, 0, 0)" stroke-linecap="square" stroke-width="3.0"/>
   <path d=" M279.0,308.0 C269.0,293.0 269.0,293.0 249.0,293.0 C257.0,308.0 257.0,308.0 249.0,323.0 C269.0,323.0 269.0,323.0 279.0,308.0 Z" fill="none" stroke="rgb(0, 0, 0)" stroke-linecap="square" stroke-width="2.0"/>
   <polyline fill="none" points="249,208 209,208 209,158 309,158 309,148 309,146" stroke="rgb(0, 0, 0)" stroke-linecap="square" stroke-width="3.0"/>
   <polyline fill="none" points="749,158 329,158 329,148 329,146" stroke="rgb(0, 0, 0)" stroke-linecap="square" stroke-width="3.0"/>
   <path d=" M319.0,118.0 C304.0,128.0 304.0,128.0 304.0,148.0 C319.0,140.0 319.0,140.0 334.0,148.0 C334.0,128.0 334.0,128.0 319.0,118.0 Z" fill="none" stroke="rgb(0, 0, 0)" stroke-linecap="square" stroke-width="2.0"/>
   <polygon fill="none" points="759,158 778,165 778,151" stroke="rgb(0, 0, 0)" stroke-linecap="square" stroke-width="2.0"/>
   <ellipse fill="none" rx="4.5" ry="4.5" stroke="rgb(0, 0, 0)" stroke-width="2.0" transform="translate(754.0 158.0) rotate(-180)"/>
   <ellipse cx="749.0" cy="158.0" fill="rgb(0, 0, 0)" rx="2.0" ry="2.0" stroke="none" stroke-width="2.0"/>
   <ellipse cx="779.0" cy="158.0" fill="rgb(0, 0, 0)" rx="2.0" ry="2.0" stroke="none" stroke-width="2.0"/>
   <rect fill="rgb(0, 0, 0)" height="3" stroke="none" stroke-linecap="square" stroke-width="1.0" width="10" x="569" y="207"/>
   <text fill="rgb(64, 64, 64)" font-family="Dialog" font-size="12" x="584.0" y="212.0">i</text>
   <rect fill="rgb(0, 0, 0)" height="3" stroke="none" stroke-linecap="square" stroke-width="1.0" width="10" x="569" y="227"/>
   <text fill="rgb(64, 64, 64)" font-family="Dialog" font-size="12" x="584.0" y="232.0">s</text>
   <rect fill="rgb(0, 0, 0)" height="3" stroke="none" stroke-linecap="square" stroke-width="1.0" width="10" x="779" y="207"/>
   <text fill="rgb(64, 64, 64)" font-family="Dialog" font-size="12" x="767.0" y="212.0">o</text>
   <rect fill="rgb(0, 0, 0)" height="20" stroke="none" stroke-linecap="square" stroke-width="1.0" width="200" x="579" y="238"/>
   <polyline fill="none" points="579,198 778,198" stroke="rgb(0, 0, 0)" stroke-linecap="square" stroke-width="2.0"/>
   <polyline fill="none" points="779,198 779,257" stroke="rgb(0, 0, 0)" stroke-linecap="square" stroke-width="2.0"/>
   <polyline fill="none" points="779,258 580,258" stroke="rgb(0, 0, 0)" stroke-linecap="square" stroke-width="2.0"/>
   <polyline fill="none" points="579,258 579,199" stroke="rgb(0, 0, 0)" stroke-linecap="square" stroke-width="2.0"/>
   <text fill="rgb(255, 255, 255)" font-family="Dialog" font-size="14" font-weight="bold" x="612.0" y="252.0">MEMORY_BIT_1BIT</text>
   <ellipse cx="569.0" cy="208.0" fill="rgb(0, 0, 0)" rx="2.0" ry="2.0" stroke="none" stroke-width="1.0"/>
   <ellipse cx="569.0" cy="228.0" fill="rgb(0, 0, 0)" rx="2.0" ry="2.0" stroke="none" stroke-width="1.0"/>
   <ellipse cx="789.0" cy="208.0" fill="rgb(0, 0, 0)" rx="2.0" ry="2.0" stroke="none" stroke-width="1.0"/>
   <rect fill="rgb(0, 0, 0)" height="3" stroke="none" stroke-linecap="square" stroke-width="1.0" width="10" x="829" y="207"/>
   <text fill="rgb(64, 64, 64)" font-family="Dialog" font-size="12" x="844.0" y="212.0">i</text>
   <rect fill="rgb(0, 0, 0)" height="3" stroke="none" stroke-linecap="square" stroke-width="1.0" width="10" x="829" y="227"/>
   <text fill="rgb(64, 64, 64)" font-family="Dialog" font-size="12" x="844.0" y="232.0">s</text>
   <rect fill="rgb(0, 0, 0)" height="3" stroke="none" stroke-linecap="square" stroke-width="1.0" width="10" x="1039" y="207"/>
   <text fill="rgb(64, 64, 64)" font-family="Dialog" font-size="12" x="1027.0" y="212.0">o</text>
   <rect fill="rgb(0, 0, 0)" height="20" stroke="none" stroke-linecap="square" stroke-width="1.0" width="200" x="839" y="238"/>
   <polyline fill="none" points="839,198 1038,198" stroke="rgb(0, 0, 0)" stroke-linecap="square" stroke-width="2.0"/>
   <polyline fill="none" points="1039,198 1039,257" stroke="rgb(0, 0, 0)" stroke-linecap="square" stroke-width="2.0"/>
   <polyline fill="none" points="1039,258 840,258" stroke="rgb(0, 0, 0)" stroke-linecap="square" stroke-width="2.0"/>
   <polyline fill="none" points="839,258 839,199" stroke="rgb(0, 0, 0)" stroke-linecap="square" stroke-width="2.0"/>
   <text fill="rgb(255, 255, 255)" font-family="Dialog" font-size="14" font-weight="bold" x="872.0" y="252.0">MEMORY_BIT_1BIT</text>
   <ellipse cx="829.0" cy="208.0" fill="rgb(0, 0, 0)" rx="2.0" ry="2.0" stroke="none" stroke-width="1.0"/>
   <ellipse cx="829.0" cy="228.0" fill="rgb(0, 0, 0)" rx="2.0" ry="2.0" stroke="none" stroke-width="1.0"/>
   <ellipse cx="1049.0" cy="208.0" fill="rgb(0, 0, 0)" rx="2.0" ry="2.0" stroke="none" stroke-width="1.0"/>
   <rect fill="rgb(0, 0, 0)" height="3" stroke="none" stroke-linecap="square" stroke-width="1.0" width="10" x="1069" y="207"/>
   <text fill="rgb(64, 64, 64)" font-family="Dialog" font-size="12" x="1084.0" y="212.0">i</text>
   <rect fill="rgb(0, 0, 0)" height="3" stroke="none" stroke-linecap="square" stroke-width="1.0" width="10" x="1069" y="227"/>
   <text fill="rgb(64, 64, 64)" font-family="Dialog" font-size="12" x="1084.0" y="232.0">s</text>
   <rect fill="rgb(0, 0, 0)" height="3" stroke="none" stroke-linecap="square" stroke-width="1.0" width="10" x="1279" y="207"/>
   <text fill="rgb(64, 64, 64)" font-family="Dialog" font-size="12" x="1267.0" y="212.0">o</text>
   <rect fill="rgb(0, 0, 0)" height="20" stroke="none" stroke-linecap="square" stroke-width="1.0" width="200" x="1079" y="238"/>
   <polyline fill="none" points="1079,198 1278,198" stroke="rgb(0, 0, 0)" stroke-linecap="square" stroke-width="2.0"/>
   <polyline fill="none" points="1279,198 1279,257" stroke="rgb(0, 0, 0)" stroke-linecap="square" stroke-width="2.0"/>
   <polyline fill="none" points="1279,258 1080,258" stroke="rgb(0, 0, 0)" stroke-linecap="square" stroke-width="2.0"/>
   <polyline fill="none" points="1079,258 1079,199" stroke="rgb(0, 0, 0)" stroke-linecap="square" stroke-width="2.0"/>
   <text fill="rgb(255, 255, 255)" font-family="Dialog" font-size="14" font-weight="bold" x="1112.0" y="252.0">MEMORY_BIT_1BIT</text>
   <ellipse cx="1069.0" cy="208.0" fill="rgb(0, 0, 0)" rx="2.0" ry="2.0" stroke="none" stroke-width="1.0"/>
   <ellipse cx="1069.0" cy="228.0" fill="rgb(0, 0, 0)" rx="2.0" ry="2.0" stroke="none" stroke-width="1.0"/>
   <ellipse cx="1289.0" cy="208.0" fill="rgb(0, 0, 0)" rx="2.0" ry="2.0" stroke="none" stroke-width="1.0"/>
   <rect fill="rgb(0, 0, 0)" height="3" stroke="none" stroke-linecap="square" stroke-width="1.0" width="10" x="1359" y="207"/>
   <text fill="rgb(64, 64, 64)" font-family="Dialog" font-size="12" x="1374.0" y="212.0">i</text>
   <rect fill="rgb(0, 0, 0)" height="3" stroke="none" stroke-linecap="square" stroke-width="1.0" width="10" x="1359" y="227"/>
   <text fill="rgb(64, 64, 64)" font-family="Dialog" font-size="12" x="1374.0" y="232.0">s</text>
   <rect fill="rgb(0, 0, 0)" height="3" stroke="none" stroke-linecap="square" stroke-width="1.0" width="10" x="1569" y="207"/>
   <text fill="rgb(64, 64, 64)" font-family="Dialog" font-size="12" x="1557.0" y="212.0">o</text>
   <rect fill="rgb(0, 0, 0)" height="20" stroke="none" stroke-linecap="square" stroke-width="1.0" width="200" x="1369" y="238"/>
   <polyline fill="none" points="1369,198 1568,198" stroke="rgb(0, 0, 0)" stroke-linecap="square" stroke-width="2.0"/>
   <polyline fill="none" points="1569,198 1569,257" stroke="rgb(0, 0, 0)" stroke-linecap="square" stroke-width="2.0"/>
   <polyline fill="none" points="1569,258 1370,258" stroke="rgb(0, 0, 0)" stroke-linecap="square" stroke-width="2.0"/>
   <polyline fill="none" points="1369,258 1369,199" stroke="rgb(0, 0, 0)" stroke-linecap="square" stroke-width="2.0"/>
   <text fill="rgb(255, 255, 255)" font-family="Dialog" font-size="14" font-weight="bold" x="1402.0" y="252.0">MEMORY_BIT_1BIT</text>
   <ellipse cx="1359.0" cy="208.0" fill="rgb(0, 0, 0)" rx="2.0" ry="2.0" stroke="none" stroke-width="1.0"/>
   <ellipse cx="1359.0" cy="228.0" fill="rgb(0, 0, 0)" rx="2.0" ry="2.0" stroke="none" stroke-width="1.0"/>
   <ellipse cx="1579.0" cy="208.0" fill="rgb(0, 0, 0)" rx="2.0" ry="2.0" stroke="none" stroke-width="1.0"/>
   <rect fill="rgb(0, 0, 0)" height="3" stroke="none" stroke-linecap="square" stroke-width="1.0" width="10" x="1619" y="207"/>
   <text fill="rgb(64, 64, 64)" font-family="Dialog" font-size="12" x="1634.0" y="212.0">i</text>
   <rect fill="rgb(0, 0, 0)" height="3" stroke="none" stroke-linecap="square" stroke-width="1.0" width="10" x="1619" y="227"/>
   <text fill="rgb(64, 64, 64)" font-family="Dialog" font-size="12" x="1634.0" y="232.0">s</text>
   <rect fill="rgb(0, 0, 0)" height="3" stroke="none" stroke-linecap="square" stroke-width="1.0" width="10" x="1829" y="207"/>
   <text fill="rgb(64, 64, 64)" font-family="Dialog" font-size="12" x="1817.0" y="212.0">o</text>
   <rect fill="rgb(0, 0, 0)" height="20" stroke="none" stroke-linecap="square" stroke-width="1.0" width="200" x="1629" y="238"/>
   <polyline fill="none" points="1629,198 1828,198" stroke="rgb(0, 0, 0)" stroke-linecap="square" stroke-width="2.0"/>
   <polyline fill="none" points="1829,198 1829,257" stroke="rgb(0, 0, 0)" stroke-linecap="square" stroke-width="2.0"/>
   <polyline fill="none" points="1829,258 1630,258" stroke="rgb(0, 0, 0)" stroke-linecap="square" stroke-width="2.0"/>
   <polyline fill="none" points="1629,258 1629,199" stroke="rgb(0, 0, 0)" stroke-linecap="square" stroke-width="2.0"/>
   <text fill="rgb(255, 255, 255)" font-family="Dialog" font-size="14" font-weight="bold" x="1662.0" y="252.0">MEMORY_BIT_1BIT</text>
   <ellipse cx="1619.0" cy="208.0" fill="rgb(0, 0, 0)" rx="2.0" ry="2.0" stroke="none" stroke-width="1.0"/>
   <ellipse cx="1619.0" cy="228.0" fill="rgb(0, 0, 0)" rx="2.0" ry="2.0" stroke="none" stroke-width="1.0"/>
   <ellipse cx="1839.0" cy="208.0" fill="rgb(0, 0, 0)" rx="2.0" ry="2.0" stroke="none" stroke-width="1.0"/>
   <rect fill="rgb(0, 0, 0)" height="3" stroke="none" stroke-linecap="square" stroke-width="1.0" width="10" x="1879" y="207"/>
   <text fill="rgb(64, 64, 64)" font-family="Dialog" font-size="12" x="1894.0" y="212.0">i</text>
   <rect fill="rgb(0, 0, 0)" height="3" stroke="none" stroke-linecap="square" stroke-width="1.0" width="10" x="1879" y="227"/>
   <text fill="rgb(64, 64, 64)" font-family="Dialog" font-size="12" x="1894.0" y="232.0">s</text>
   <rect fill="rgb(0, 0, 0)" height="3" stroke="none" stroke-linecap="square" stroke-width="1.0" width="10" x="2089" y="207"/>
   <text fill="rgb(64, 64, 64)" font-family="Dialog" font-size="12" x="2077.0" y="212.0">o</text>
   <rect fill="rgb(0, 0, 0)" height="20" stroke="none" stroke-linecap="square" stroke-width="1.0" width="200" x="1889" y="238"/>
   <polyline fill="none" points="1889,198 2088,198" stroke="rgb(0, 0, 0)" stroke-linecap="square" stroke-width="2.0"/>
   <polyline fill="none" points="2089,198 2089,257" stroke="rgb(0, 0, 0)" stroke-linecap="square" stroke-width="2.0"/>
   <polyline fill="none" points="2089,258 1890,258" stroke="rgb(0, 0, 0)" stroke-linecap="square" stroke-width="2.0"/>
   <polyline fill="none" points="1889,258 1889,199" stroke="rgb(0, 0, 0)" stroke-linecap="square" stroke-width="2.0"/>
   <text fill="rgb(255, 255, 255)" font-family="Dialog" font-size="14" font-weight="bold" x="1922.0" y="252.0">MEMORY_BIT_1BIT</text>
   <ellipse cx="1879.0" cy="208.0" fill="rgb(0, 0, 0)" rx="2.0" ry="2.0" stroke="none" stroke-width="1.0"/>
   <ellipse cx="1879.0" cy="228.0" fill="rgb(0, 0, 0)" rx="2.0" ry="2.0" stroke="none" stroke-width="1.0"/>
   <ellipse cx="2099.0" cy="208.0" fill="rgb(0, 0, 0)" rx="2.0" ry="2.0" stroke="none" stroke-width="1.0"/>
   <rect fill="rgb(0, 0, 0)" height="3" stroke="none" stroke-linecap="square" stroke-width="1.0" width="10" x="2119" y="207"/>
   <text fill="rgb(64, 64, 64)" font-family="Dialog" font-size="12" x="2134.0" y="212.0">i</text>
   <rect fill="rgb(0, 0, 0)" height="3" stroke="none" stroke-linecap="square" stroke-width="1.0" width="10" x="2119" y="227"/>
   <text fill="rgb(64, 64, 64)" font-family="Dialog" font-size="12" x="2134.0" y="232.0">s</text>
   <rect fill="rgb(0, 0, 0)" height="3" stroke="none" stroke-linecap="square" stroke-width="1.0" width="10" x="2329" y="207"/>
   <text fill="rgb(64, 64, 64)" font-family="Dialog" font-size="12" x="2317.0" y="212.0">o</text>
   <rect fill="rgb(0, 0, 0)" height="20" stroke="none" stroke-linecap="square" stroke-width="1.0" width="200" x="2129" y="238"/>
   <polyline fill="none" points="2129,198 2328,198" stroke="rgb(0, 0, 0)" stroke-linecap="square" stroke-width="2.0"/>
   <polyline fill="none" points="2329,198 2329,257" stroke="rgb(0, 0, 0)" stroke-linecap="square" stroke-width="2.0"/>
   <polyline fill="none" points="2329,258 2130,258" stroke="rgb(0, 0, 0)" stroke-linecap="square" stroke-width="2.0"/>
   <polyline fill="none" points="2129,258 2129,199" stroke="rgb(0, 0, 0)" stroke-linecap="square" stroke-width="2.0"/>
   <text fill="rgb(255, 255, 255)" font-family="Dialog" font-size="14" font-weight="bold" x="2162.0" y="252.0">MEMORY_BIT_1BIT</text>
   <ellipse cx="2119.0" cy="208.0" fill="rgb(0, 0, 0)" rx="2.0" ry="2.0" stroke="none" stroke-width="1.0"/>
   <ellipse cx="2119.0" cy="228.0" fill="rgb(0, 0, 0)" rx="2.0" ry="2.0" stroke="none" stroke-width="1.0"/>
   <ellipse cx="2339.0" cy="208.0" fill="rgb(0, 0, 0)" rx="2.0" ry="2.0" stroke="none" stroke-width="1.0"/>
   <rect fill="rgb(0, 0, 0)" height="3" stroke="none" stroke-linecap="square" stroke-width="1.0" width="10" x="2419" y="207"/>
   <text fill="rgb(64, 64, 64)" font-family="Dialog" font-size="12" x="2434.0" y="212.0">i</text>
   <rect fill="rgb(0, 0, 0)" height="3" stroke="none" stroke-linecap="square" stroke-width="1.0" width="10" x="2419" y="227"/>
   <text fill="rgb(64, 64, 64)" font-family="Dialog" font-size="12" x="2434.0" y="232.0">s</text>
   <rect fill="rgb(0, 0, 0)" height="3" stroke="none" stroke-linecap="square" stroke-width="1.0" width="10" x="2629" y="207"/>
   <text fill="rgb(64, 64, 64)" font-family="Dialog" font-size="12" x="2617.0" y="212.0">o</text>
   <rect fill="rgb(0, 0, 0)" height="20" stroke="none" stroke-linecap="square" stroke-width="1.0" width="200" x="2429" y="238"/>
   <polyline fill="none" points="2429,198 2628,198" stroke="rgb(0, 0, 0)" stroke-linecap="square" stroke-width="2.0"/>
   <polyline fill="none" points="2629,198 2629,257" stroke="rgb(0, 0, 0)" stroke-linecap="square" stroke-width="2.0"/>
   <polyline fill="none" points="2629,258 2430,258" stroke="rgb(0, 0, 0)" stroke-linecap="square" stroke-width="2.0"/>
   <polyline fill="none" points="2429,258 2429,199" stroke="rgb(0, 0, 0)" stroke-linecap="square" stroke-width="2.0"/>
   <text fill="rgb(255, 255, 255)" font-family="Dialog" font-size="14" font-weight="bold" x="2462.0" y="252.0">MEMORY_BIT_1BIT</text>
   <ellipse cx="2419.0" cy="208.0" fill="rgb(0, 0, 0)" rx="2.0" ry="2.0" stroke="none" stroke-width="1.0"/>
   <ellipse cx="2419.0" cy="228.0" fill="rgb(0, 0, 0)" rx="2.0" ry="2.0" stroke="none" stroke-width="1.0"/>
   <ellipse cx="2639.0" cy="208.0" fill="rgb(0, 0, 0)" rx="2.0" ry="2.0" stroke="none" stroke-width="1.0"/>
   <rect fill="rgb(0, 0, 0)" height="3" stroke="none" stroke-linecap="square" stroke-width="1.0" width="10" x="2679" y="207"/>
   <text fill="rgb(64, 64, 64)" font-family="Dialog" font-size="12" x="2694.0" y="212.0">i</text>
   <rect fill="rgb(0, 0, 0)" height="3" stroke="none" stroke-linecap="square" stroke-width="1.0" width="10" x="2679" y="227"/>
   <text fill="rgb(64, 64, 64)" font-family="Dialog" font-size="12" x="2694.0" y="232.0">s</text>
   <rect fill="rgb(0, 0, 0)" height="3" stroke="none" stroke-linecap="square" stroke-width="1.0" width="10" x="2889" y="207"/>
   <text fill="rgb(64, 64, 64)" font-family="Dialog" font-size="12" x="2877.0" y="212.0">o</text>
   <rect fill="rgb(0, 0, 0)" height="20" stroke="none" stroke-linecap="square" stroke-width="1.0" width="200" x="2689" y="238"/>
   <polyline fill="none" points="2689,198 2888,198" stroke="rgb(0, 0, 0)" stroke-linecap="square" stroke-width="2.0"/>
   <polyline fill="none" points="2889,198 2889,257" stroke="rgb(0, 0, 0)" stroke-linecap="square" stroke-width="2.0"/>
   <polyline fill="none" points="2889,258 2690,258" stroke="rgb(0, 0, 0)" stroke-linecap="square" stroke-width="2.0"/>
   <polyline fill="none" points="2689,258 2689,199" stroke="rgb(0, 0, 0)" stroke-linecap="square" stroke-width="2.0"/>
   <text fill="rgb(255, 255, 255)" font-family="Dialog" font-size="14" font-weight="bold" x="2722.0" y="252.0">MEMORY_BIT_1BIT</text>
   <ellipse cx="2679.0" cy="208.0" fill="rgb(0, 0, 0)" rx="2.0" ry="2.0" stroke="none" stroke-width="1.0"/>
   <ellipse cx="2679.0" cy="228.0" fill="rgb(0, 0, 0)" rx="2.0" ry="2.0" stroke="none" stroke-width="1.0"/>
   <ellipse cx="2899.0" cy="208.0" fill="rgb(0, 0, 0)" rx="2.0" ry="2.0" stroke="none" stroke-width="1.0"/>
   <rect fill="rgb(0, 0, 0)" height="3" stroke="none" stroke-linecap="square" stroke-width="1.0" width="10" x="2939" y="207"/>
   <text fill="rgb(64, 64, 64)" font-family="Dialog" font-size="12" x="2954.0" y="212.0">i</text>
   <rect fill="rgb(0, 0, 0)" height="3" stroke="none" stroke-linecap="square" stroke-width="1.0" width="10" x="2939" y="227"/>
   <text fill="rgb(64, 64, 64)" font-family="Dialog" font-size="12" x="2954.0" y="232.0">s</text>
   <rect fill="rgb(0, 0, 0)" height="3" stroke="none" stroke-linecap="square" stroke-width="1.0" width="10" x="3149" y="207"/>
   <text fill="rgb(64, 64, 64)" font-family="Dialog" font-size="12" x="3137.0" y="212.0">o</text>
   <rect fill="rgb(0, 0, 0)" height="20" stroke="none" stroke-linecap="square" stroke-width="1.0" width="200" x="2949" y="238"/>
   <polyline fill="none" points="2949,198 3148,198" stroke="rgb(0, 0, 0)" stroke-linecap="square" stroke-width="2.0"/>
   <polyline fill="none" points="3149,198 3149,257" stroke="rgb(0, 0, 0)" stroke-linecap="square" stroke-width="2.0"/>
   <polyline fill="none" points="3149,258 2950,258" stroke="rgb(0, 0, 0)" stroke-linecap="square" stroke-width="2.0"/>
   <polyline fill="none" points="2949,258 2949,199" stroke="rgb(0, 0, 0)" stroke-linecap="square" stroke-width="2.0"/>
   <text fill="rgb(255, 255, 255)" font-family="Dialog" font-size="14" font-weight="bold" x="2982.0" y="252.0">MEMORY_BIT_1BIT</text>
   <ellipse cx="2939.0" cy="208.0" fill="rgb(0, 0, 0)" rx="2.0" ry="2.0" stroke="none" stroke-width="1.0"/>
   <ellipse cx="2939.0" cy="228.0" fill="rgb(0, 0, 0)" rx="2.0" ry="2.0" stroke="none" stroke-width="1.0"/>
   <ellipse cx="3159.0" cy="208.0" fill="rgb(0, 0, 0)" rx="2.0" ry="2.0" stroke="none" stroke-width="1.0"/>
   <rect fill="rgb(0, 0, 0)" height="3" stroke="none" stroke-linecap="square" stroke-width="1.0" width="10" x="3179" y="207"/>
   <text fill="rgb(64, 64, 64)" font-family="Dialog" font-size="12" x="3194.0" y="212.0">i</text>
   <rect fill="rgb(0, 0, 0)" height="3" stroke="none" stroke-linecap="square" stroke-width="1.0" width="10" x="3179" y="227"/>
   <text fill="rgb(64, 64, 64)" font-family="Dialog" font-size="12" x="3194.0" y="232.0">s</text>
   <rect fill="rgb(0, 0, 0)" height="3" stroke="none" stroke-linecap="square" stroke-width="1.0" width="10" x="3389" y="207"/>
   <text fill="rgb(64, 64, 64)" font-family="Dialog" font-size="12" x="3377.0" y="212.0">o</text>
   <rect fill="rgb(0, 0, 0)" height="20" stroke="none" stroke-linecap="square" stroke-width="1.0" width="200" x="3189" y="238"/>
   <polyline fill="none" points="3189,198 3388,198" stroke="rgb(0, 0, 0)" stroke-linecap="square" stroke-width="2.0"/>
   <polyline fill="none" points="3389,198 3389,257" stroke="rgb(0, 0, 0)" stroke-linecap="square" stroke-width="2.0"/>
   <polyline fill="none" points="3389,258 3190,258" stroke="rgb(0, 0, 0)" stroke-linecap="square" stroke-width="2.0"/>
   <polyline fill="none" points="3189,258 3189,199" stroke="rgb(0, 0, 0)" stroke-linecap="square" stroke-width="2.0"/>
   <text fill="rgb(255, 255, 255)" font-family="Dialog" font-size="14" font-weight="bold" x="3222.0" y="252.0">MEMORY_BIT_1BIT</text>
   <ellipse cx="3179.0" cy="208.0" fill="rgb(0, 0, 0)" rx="2.0" ry="2.0" stroke="none" stroke-width="1.0"/>
   <ellipse cx="3179.0" cy="228.0" fill="rgb(0, 0, 0)" rx="2.0" ry="2.0" stroke="none" stroke-width="1.0"/>
   <ellipse cx="3399.0" cy="208.0" fill="rgb(0, 0, 0)" rx="2.0" ry="2.0" stroke="none" stroke-width="1.0"/>
   <rect fill="rgb(0, 0, 0)" height="3" stroke="none" stroke-linecap="square" stroke-width="1.0" width="10" x="309" y="207"/>
   <text fill="rgb(64, 64, 64)" font-family="Dialog" font-size="12" x="324.0" y="212.0">i</text>
   <rect fill="rgb(0, 0, 0)" height="3" stroke="none" stroke-linecap="square" stroke-width="1.0" width="10" x="309" y="227"/>
   <text fill="rgb(64, 64, 64)" font-family="Dialog" font-size="12" x="324.0" y="232.0">s</text>
   <rect fill="rgb(0, 0, 0)" height="3" stroke="none" stroke-linecap="square" stroke-width="1.0" width="10" x="519" y="207"/>
   <text fill="rgb(64, 64, 64)" font-family="Dialog" font-size="12" x="507.0" y="212.0">o</text>
   <rect fill="rgb(0, 0, 0)" height="20" stroke="none" stroke-linecap="square" stroke-width="1.0" width="200" x="319" y="238"/>
   <polyline fill="none" points="319,198 518,198" stroke="rgb(0, 0, 0)" stroke-linecap="square" stroke-width="2.0"/>
   <polyline fill="none" points="519,198 519,257" stroke="rgb(0, 0, 0)" stroke-linecap="square" stroke-width="2.0"/>
   <polyline fill="none" points="519,258 320,258" stroke="rgb(0, 0, 0)" stroke-linecap="square" stroke-width="2.0"/>
   <polyline fill="none" points="319,258 319,199" stroke="rgb(0, 0, 0)" stroke-linecap="square" stroke-width="2.0"/>
   <text fill="rgb(255, 255, 255)" font-family="Dialog" font-size="14" font-weight="bold" x="352.0" y="252.0">MEMORY_BIT_1BIT</text>
   <ellipse cx="309.0" cy="208.0" fill="rgb(0, 0, 0)" rx="2.0" ry="2.0" stroke="none" stroke-width="1.0"/>
   <ellipse cx="309.0" cy="228.0" fill="rgb(0, 0, 0)" rx="2.0" ry="2.0" stroke="none" stroke-width="1.0"/>
   <ellipse cx="529.0" cy="208.0" fill="rgb(0, 0, 0)" rx="2.0" ry="2.0" stroke="none" stroke-width="1.0"/>
</svg>
